<svg width="382" height="251" viewBox="0 0 382 251" fill="none" xmlns="http://www.w3.org/2000/svg">
<path d="M334.906 6.42806C336.813 6.42806 338.339 4.99752 338.339 3.28085C338.339 1.5165 336.813 0.0859375 334.906 0.0859375C332.999 0.0859375 331.473 1.5165 331.473 3.28085C331.473 4.99752 333.046 6.42806 334.906 6.42806Z" fill="#FFDD00"/>
<path d="M344.109 36.8034C344.109 36.8034 354.886 15.5359 356.889 16.728C358.892 17.9678 352.74 36.8035 353.503 37.2326C354.266 37.6618 368.858 41.2859 368.715 42.0965C368.572 42.9072 353.837 42.8595 353.837 42.8595C353.837 42.8595 345.873 58.3095 345.492 57.4035C345.111 56.4974 343.06 41.0951 343.06 41.0951C343.06 41.0951 329.994 36.6127 332.379 35.9928C334.667 35.2298 344.109 36.8034 344.109 36.8034Z" fill="#FFDD00"/>
<path d="M304.673 48.8692C304.673 48.8692 304.196 39.2844 305.15 39.8567C306.103 40.4289 308.297 47.1525 308.297 47.1525C308.297 47.1525 317.548 45.6743 315.354 46.8664C313.161 48.0108 310.967 49.7752 310.967 49.7752C310.967 49.7752 312.684 57.6432 311.921 57.071C311.206 56.4988 306.342 52.3979 306.342 52.3979C306.342 52.3979 299.523 54.4483 300.238 53.5423C301.049 52.684 304.673 48.8692 304.673 48.8692Z" fill="#FFDD00"/>
<path d="M367.379 102.659C368.571 102.659 369.573 101.467 369.573 100.037C369.573 98.6062 368.571 97.4141 367.379 97.4141C366.187 97.4141 365.186 98.6062 365.186 100.037C365.233 101.467 366.187 102.659 367.379 102.659Z" fill="#FFDD00"/>
<path d="M68.8697 115.244C68.8697 115.244 61.0017 99.8898 62.5753 99.2699C64.1489 98.6023 72.5415 110.237 73.1137 109.951C73.6859 109.665 82.0308 102.703 82.4123 103.132C82.7938 103.562 76.4993 112.145 76.4993 112.145C76.4993 112.145 82.1262 123.351 81.4586 123.208C80.7433 123.065 70.8725 117.676 70.8725 117.676C70.8725 117.676 62.7183 123.399 63.3382 121.777C63.9581 120.108 68.8697 115.244 68.8697 115.244Z" fill="#FFDD00"/>
<path d="M53.516 147.241C55.2804 147.241 56.7586 145.572 56.7586 143.474C56.7586 141.376 55.3281 139.707 53.516 139.707C51.7517 139.707 50.2734 141.376 50.2734 143.474C50.3211 145.572 51.7517 147.241 53.516 147.241Z" fill="#FFDD00"/>
<path d="M42.3101 64.6983C44.4083 64.6983 46.0772 63.0294 46.0772 60.9312C46.0772 58.8331 44.4083 57.1641 42.3101 57.1641C40.212 57.1641 38.543 58.8331 38.543 60.9312C38.543 63.0294 40.212 64.6983 42.3101 64.6983Z" fill="#FFDD00"/>
<path d="M2.30208 112.768C3.49421 112.768 4.44792 111.815 4.44792 110.622C4.44792 109.43 3.49421 108.477 2.30208 108.477C1.10995 108.477 0.15625 109.43 0.15625 110.622C0.15625 111.815 1.10995 112.768 2.30208 112.768Z" fill="#FFDD00"/>
<path d="M235.292 158.306C235.292 158.306 233.814 221.966 235.054 226.067C236.294 230.215 281.356 248.288 292.944 245.761C304.484 243.233 312.638 237.511 312.638 233.792C312.638 230.072 310.253 165.888 308.584 162.169C306.916 158.449 274.013 123.925 269.483 126.834C269.483 126.834 261.662 130.553 264.142 132.652C266.622 134.702 297.712 161.501 296.854 162.741C295.996 163.981 282.453 178.906 277.494 178.477C272.487 178.048 234.434 155.397 235.292 158.306Z" fill="#1F8915"/>
<path d="M192.185 149.486C194.76 140.76 200.577 133.273 208.588 128.934C214.644 125.644 223.085 122.83 232.86 126.502C241.396 129.697 250.218 144.384 241.587 147.579C225.755 153.492 222.322 170.039 239.727 184.63C254.652 197.172 176.401 203.037 192.185 149.486Z" fill="#EBEBEB"/>
<path d="M216.218 209.853C216.218 209.853 201.436 210.616 200.53 228.45C199.624 246.332 213.834 252.293 220.653 250.29C226.9 248.478 234.577 207.85 216.218 209.853Z" fill="#EBEBEB"/>
<path d="M251.172 23.3564C249.598 21.8781 245.211 19.6369 242.875 19.78C236.771 20.0184 227.043 23.3564 225.422 29.8416C223.944 35.5638 236.008 46.7698 239.441 45.2915C250.361 40.7138 254.462 41.7152 260.089 54.6855C262.521 60.3601 265.668 37.1374 251.172 23.3564Z" fill="#EBEBEB"/>
<path d="M149.745 58.9319C147.361 56.5476 140.59 52.9236 137.013 53.0666C127.667 53.4481 112.455 58.7411 110.262 69.2796C107.305 83.5374 122.946 90.9763 130.194 102.421C137.347 113.674 152.511 120.732 157.375 117.918C165.72 113.055 172.014 81.2009 149.745 58.9319Z" fill="#EBEBEB"/>
<path d="M165.291 40.0472C165.291 40.0472 215.217 14.8218 232.956 43.2898" stroke="#1F1F1F" stroke-width="4.76852" stroke-miterlimit="10" stroke-linecap="round" stroke-linejoin="round"/>
<path d="M169.009 37.3778C169.009 37.3778 119.083 8.3852 91.1393 67.9917C89.518 74.9537 93.2852 82.488 100.247 90.5468C107.209 98.6056 134.628 157.688 180.263 120.064C184.03 122.734 225.659 130.793 244.161 100.751C250.932 102.182 282.309 108 295.184 92.6449C297.473 89.8792 296.519 85.6829 293.325 84.0616" stroke="#1F1F1F" stroke-width="4.76852" stroke-miterlimit="10" stroke-linecap="round" stroke-linejoin="round"/>
<path d="M293.372 84.1066C293.372 84.1066 293.372 73.0437 282.881 78.7182C276.444 82.1992 263.283 88.9228 253.889 75.7617" stroke="#1F1F1F" stroke-width="4.76852" stroke-miterlimit="10" stroke-linecap="round" stroke-linejoin="round"/>
<path d="M207.682 28.5067C207.682 28.5067 240.727 -6.685 255.748 15.3456C270.769 37.3761 277.779 68.2284 263.807 83.0108" stroke="#1F1F1F" stroke-width="4.76852" stroke-miterlimit="10" stroke-linecap="round" stroke-linejoin="round"/>
<path d="M214.405 73.6148C214.405 85.6314 204.963 95.6453 192.661 95.6453C180.358 95.6453 169.295 86.156 169.295 74.187C169.295 62.1703 179.833 52.1564 192.136 52.1564C204.439 52.1087 214.405 61.5981 214.405 73.6148Z" stroke="#1F1F1F" stroke-width="4.76852" stroke-miterlimit="10" stroke-linecap="round" stroke-linejoin="round"/>
<path d="M259.803 60.5027C259.803 70.898 251.648 79.5291 241.015 79.5291C230.381 79.5291 220.844 71.3272 220.844 60.9795C220.844 50.6318 229.904 41.9531 240.538 41.9531C251.172 41.9531 259.803 50.1073 259.803 60.5027Z" stroke="#1F1F1F" stroke-width="4.76852" stroke-miterlimit="10" stroke-linecap="round" stroke-linejoin="round"/>
<path d="M214.406 71.1839C214.406 71.1839 218.412 67.4168 222.465 69.038" stroke="#1F1F1F" stroke-width="4.76852" stroke-miterlimit="10" stroke-linecap="round" stroke-linejoin="round"/>
<path d="M188.084 79.0033C188.084 79.0033 187.798 70.9445 193.711 70.4199C199.624 69.8954 200.435 77.6681 200.435 77.6681" stroke="#1F1F1F" stroke-width="4.76852" stroke-miterlimit="10" stroke-linecap="round" stroke-linejoin="round"/>
<path d="M234.482 68.5129C234.482 68.5129 231.811 59.8818 238.821 59.1189C243.637 58.5943 245.259 64.5073 245.259 64.5073" stroke="#1F1F1F" stroke-width="4.76852" stroke-miterlimit="10" stroke-linecap="round" stroke-linejoin="round"/>
<path d="M214.311 93.4062C214.311 93.4062 219.699 110.048 228.473 95.5521" stroke="#1F1F1F" stroke-width="4.76852" stroke-miterlimit="10" stroke-linecap="round" stroke-linejoin="round"/>
<path d="M180.025 120.109C180.025 120.109 146.598 165.553 146.741 217.196C146.741 220.248 148.219 223.109 150.651 224.969C161.142 232.789 191.04 245.569 222.703 244.997C226.899 244.902 230.524 242.136 231.668 238.13C235.101 226.209 232.336 206.944 225.183 207.612C216.313 208.47 200.816 225.541 219.031 243.996" stroke="#1F1F1F" stroke-width="4.76852" stroke-miterlimit="10" stroke-linecap="round" stroke-linejoin="round"/>
<path d="M146.74 217.195C146.74 217.195 130.67 234.457 118.033 218.864" stroke="#1F1F1F" stroke-width="4.76852" stroke-miterlimit="10" stroke-linecap="round" stroke-linejoin="round"/>
<path d="M116.652 230.17L129.003 226.164C129.003 226.164 124.997 230.17 126.332 235.272" stroke="#1F1F1F" stroke-width="4.76852" stroke-miterlimit="10" stroke-linecap="round" stroke-linejoin="round"/>
<path d="M192.137 143.855C192.137 143.855 208.159 179.429 242.874 176.234C244.352 176.091 245.783 176.711 246.641 177.903C248.691 180.764 245.926 183.434 246.355 183.625C247.213 184.006 253.555 186.105 248.31 193.448C253.174 195.212 253.317 200.267 245.687 202.604C237.581 205.131 196.142 215.908 173.969 178.856" fill="white"/>
<path d="M192.137 143.855C192.137 143.855 208.159 179.429 242.874 176.234C244.352 176.091 245.783 176.711 246.641 177.903C248.691 180.764 245.926 183.434 246.355 183.625C247.213 184.006 253.555 186.105 248.31 193.448C253.174 195.212 253.317 200.267 245.687 202.604C237.581 205.131 196.142 215.908 173.969 178.856" stroke="#1F1F1F" stroke-width="4.76852" stroke-miterlimit="10" stroke-linecap="round" stroke-linejoin="round"/>
<path d="M241.014 107.187C241.014 107.187 257.417 125.451 279.162 106.568C280.259 105.614 281.832 105.232 283.215 105.709C286.553 106.854 285.885 110.621 286.315 110.525C287.221 110.335 293.61 108.332 293.658 117.392C298.617 115.962 301.717 120.015 296.853 126.405C295.089 128.741 290.177 133.271 282.929 137.277" stroke="#1F1F1F" stroke-width="4.76852" stroke-miterlimit="10" stroke-linecap="round" stroke-linejoin="round"/>
<path d="M263.999 134.415C263.999 134.415 255.035 133.271 253.604 140.996C250.505 139.708 244.592 142.283 244.639 148.196C241.683 147.672 234.864 150.342 236.533 155.826" stroke="#1F1F1F" stroke-width="4.76852" stroke-miterlimit="10" stroke-linecap="round" stroke-linejoin="round"/>
<path d="M263.188 145.715L274.632 154.632" stroke="#1F1F1F" stroke-width="4.76852" stroke-miterlimit="10" stroke-linecap="round" stroke-linejoin="round"/>
<path d="M228.568 174.852C228.52 166.793 228.711 159.402 229.33 155.205C229.569 153.489 231.572 152.63 232.955 153.679C240.775 159.259 263.998 175.376 274.25 176.33C286.696 177.474 297.043 166.411 296.853 163.169C296.662 160.403 271.437 140.471 263.855 134.51C262.615 133.556 262.519 131.744 263.616 130.647C264.331 129.932 265.237 129.169 266.191 128.502C267.765 127.453 269.815 127.453 271.389 128.502C280.354 134.701 304.482 156.731 307.248 162.501C310.252 168.843 310.348 226.733 310.205 228.784C309.918 232.646 291.75 242.898 282.643 235.746C271.675 237.51 243.827 221.154 233.574 214.86C231.143 213.381 229.617 210.759 229.474 207.897" stroke="#1F1F1F" stroke-width="4.76852" stroke-miterlimit="10" stroke-linecap="round" stroke-linejoin="round"/>
<path d="M280.26 186.629L281.881 213.571" stroke="#1F1F1F" stroke-width="4.76852" stroke-miterlimit="10" stroke-linecap="round" stroke-linejoin="round"/>
<path d="M282.215 220.297L282.549 225.876" stroke="#1F1F1F" stroke-width="4.76852" stroke-miterlimit="10" stroke-linecap="round" stroke-linejoin="round"/>
<path d="M241.635 210.234C241.635 210.234 257.466 221.965 270.007 223.157" stroke="#1F1F1F" stroke-width="4.76852" stroke-miterlimit="10" stroke-linecap="round" stroke-linejoin="round"/>
<path d="M263.045 160.453C263.045 160.453 251.934 164.22 252.888 177.524C253.842 190.829 256.846 195.883 256.846 195.883C256.846 195.883 262.187 190.209 262.807 189.255C266.86 196.36 271.485 197.886 271.485 197.886C271.485 197.886 268.672 180.576 270.484 177.143C272.344 173.71 276.635 170.944 276.635 170.944C276.635 170.944 270.818 163.839 263.045 160.453Z" fill="#822B6A"/>
<path d="M261.328 158.926L275.395 169.798" stroke="#1F1F1F" stroke-width="4.76852" stroke-miterlimit="10" stroke-linecap="round" stroke-linejoin="round"/>
<path d="M368.287 198.22C372.101 202.893 367.285 209.855 369.288 210.046C377.919 210.809 378.301 219.678 372.721 223.493C365.569 228.357 356.079 227.403 350.595 219.392C345.159 211.381 345.779 201.033 353.266 196.646C361.611 191.687 367.047 196.741 368.287 198.22Z" fill="#FFDD00"/>
<path d="M363.996 199.269C367.81 203.942 362.994 210.904 364.997 211.095C373.628 211.858 374.01 220.727 368.43 224.542C361.278 229.406 351.788 228.452 346.304 220.441C340.868 212.43 341.488 202.082 348.975 197.695C357.32 192.784 362.756 197.791 363.996 199.269Z" stroke="#1F1F1F" stroke-width="4.76852" stroke-miterlimit="10" stroke-linecap="round" stroke-linejoin="round"/>
<path d="M374.534 194.262L366.332 208.996L376.918 205.086" stroke="#1F1F1F" stroke-width="4.76852" stroke-miterlimit="10" stroke-linecap="round" stroke-linejoin="round"/>
<path d="M379.255 214.385L366.332 208.996" stroke="#1F1F1F" stroke-width="4.76852" stroke-miterlimit="10" stroke-linecap="round" stroke-linejoin="round"/>
<path d="M354.458 227.594L351.502 237.798" stroke="#1F1F1F" stroke-width="4.76852" stroke-miterlimit="10" stroke-linecap="round" stroke-linejoin="round"/>
<path d="M346.781 210.57L340.486 213.002" stroke="#1F1F1F" stroke-width="4.76852" stroke-miterlimit="10" stroke-linecap="round" stroke-linejoin="round"/>
<path d="M353.22 206.61C353.22 207.516 352.409 208.279 351.408 208.279C350.406 208.279 349.596 207.516 349.596 206.61C349.596 205.704 350.406 204.941 351.408 204.941C352.409 204.941 353.22 205.657 353.22 206.61Z" fill="#1F1F1F"/>
<path d="M366.141 226.402L370.718 236.893" stroke="#1F1F1F" stroke-width="4.76852" stroke-miterlimit="10" stroke-linecap="round" stroke-linejoin="round"/>
</svg>
